<mxfile host="app.diagrams.net" agent="Mozilla/5.0 (Windows NT 10.0; Win64; x64) AppleWebKit/537.36 (KHTML, like Gecko) Chrome/124.0.0.0 Safari/537.36 SLBrowser/9.0.5.8121 SLBChan/33 SLBVPV/64-bit" version="24.8.3">
  <diagram name="第 1 页" id="087yTqd9BPGsYpJ5kC_P">
    <mxGraphModel dx="1290" dy="541" grid="1" gridSize="10" guides="1" tooltips="1" connect="1" arrows="1" fold="1" page="1" pageScale="1" pageWidth="827" pageHeight="1169" math="0" shadow="0">
      <root>
        <mxCell id="0" />
        <mxCell id="1" parent="0" />
        <mxCell id="Q9tQBNf_BRrUACm0dyuy-1" value="User" style="shape=umlActor;verticalLabelPosition=bottom;verticalAlign=top;html=1;outlineConnect=0;" vertex="1" parent="1">
          <mxGeometry x="150" y="190" width="30" height="60" as="geometry" />
        </mxCell>
        <mxCell id="Q9tQBNf_BRrUACm0dyuy-4" value="" style="endArrow=classic;html=1;rounded=0;entryX=0;entryY=0.5;entryDx=0;entryDy=0;entryPerimeter=0;" edge="1" parent="1" source="Q9tQBNf_BRrUACm0dyuy-1" target="Q9tQBNf_BRrUACm0dyuy-3">
          <mxGeometry width="50" height="50" relative="1" as="geometry">
            <mxPoint x="390" y="310" as="sourcePoint" />
            <mxPoint x="440" y="260" as="targetPoint" />
          </mxGeometry>
        </mxCell>
        <mxCell id="Q9tQBNf_BRrUACm0dyuy-6" value="" style="group" vertex="1" connectable="0" parent="1">
          <mxGeometry x="440" y="151" width="79" height="108" as="geometry" />
        </mxCell>
        <mxCell id="Q9tQBNf_BRrUACm0dyuy-3" value="" style="sketch=0;points=[[0,0,0],[0.25,0,0],[0.5,0,0],[0.75,0,0],[1,0,0],[0,1,0],[0.25,1,0],[0.5,1,0],[0.75,1,0],[1,1,0],[0,0.25,0],[0,0.5,0],[0,0.75,0],[1,0.25,0],[1,0.5,0],[1,0.75,0]];outlineConnect=0;fontColor=#232F3E;fillColor=#01A88D;strokeColor=#ffffff;dashed=0;verticalLabelPosition=bottom;verticalAlign=top;align=center;html=1;fontSize=12;fontStyle=0;aspect=fixed;shape=mxgraph.aws4.resourceIcon;resIcon=mxgraph.aws4.rekognition_2;" vertex="1" parent="Q9tQBNf_BRrUACm0dyuy-6">
          <mxGeometry y="30" width="78" height="78" as="geometry" />
        </mxCell>
        <mxCell id="Q9tQBNf_BRrUACm0dyuy-5" value="&lt;font style=&quot;font-size: 14px;&quot;&gt;&lt;b&gt;推荐系统&lt;/b&gt;&lt;/font&gt;" style="text;html=1;align=center;verticalAlign=middle;resizable=0;points=[];autosize=1;strokeColor=none;fillColor=none;" vertex="1" parent="Q9tQBNf_BRrUACm0dyuy-6">
          <mxGeometry x="-1" width="80" height="30" as="geometry" />
        </mxCell>
        <mxCell id="Q9tQBNf_BRrUACm0dyuy-8" value="" style="image;aspect=fixed;html=1;points=[];align=center;fontSize=12;image=img/lib/azure2/management_governance/Resource_Graph_Explorer.svg;" vertex="1" parent="1">
          <mxGeometry x="373" y="380" width="67" height="64" as="geometry" />
        </mxCell>
        <mxCell id="Q9tQBNf_BRrUACm0dyuy-9" value="" style="sketch=0;pointerEvents=1;shadow=0;dashed=0;html=1;strokeColor=none;labelPosition=center;verticalLabelPosition=bottom;verticalAlign=top;align=center;fillColor=#505050;shape=mxgraph.mscae.intune.user_group" vertex="1" parent="1">
          <mxGeometry x="518" y="380" width="50" height="37" as="geometry" />
        </mxCell>
        <mxCell id="Q9tQBNf_BRrUACm0dyuy-10" value="" style="endArrow=none;dashed=1;html=1;rounded=0;" edge="1" parent="1" source="Q9tQBNf_BRrUACm0dyuy-8" target="Q9tQBNf_BRrUACm0dyuy-3">
          <mxGeometry width="50" height="50" relative="1" as="geometry">
            <mxPoint x="390" y="310" as="sourcePoint" />
            <mxPoint x="440" y="260" as="targetPoint" />
          </mxGeometry>
        </mxCell>
        <mxCell id="Q9tQBNf_BRrUACm0dyuy-11" value="" style="endArrow=none;dashed=1;html=1;rounded=0;exitX=0.17;exitY=0.1;exitDx=0;exitDy=0;exitPerimeter=0;" edge="1" parent="1" source="Q9tQBNf_BRrUACm0dyuy-9">
          <mxGeometry width="50" height="50" relative="1" as="geometry">
            <mxPoint x="390" y="310" as="sourcePoint" />
            <mxPoint x="470" y="260" as="targetPoint" />
          </mxGeometry>
        </mxCell>
        <mxCell id="Q9tQBNf_BRrUACm0dyuy-12" value="&lt;font style=&quot;font-size: 14px;&quot;&gt;&lt;b&gt;知识图谱&lt;/b&gt;&lt;/font&gt;" style="text;html=1;align=center;verticalAlign=middle;resizable=0;points=[];autosize=1;strokeColor=none;fillColor=none;" vertex="1" parent="1">
          <mxGeometry x="368" y="444" width="80" height="30" as="geometry" />
        </mxCell>
        <mxCell id="Q9tQBNf_BRrUACm0dyuy-13" value="用户-项目交互信息" style="text;html=1;align=center;verticalAlign=middle;resizable=0;points=[];autosize=1;strokeColor=none;fillColor=none;" vertex="1" parent="1">
          <mxGeometry x="483" y="430" width="120" height="30" as="geometry" />
        </mxCell>
        <mxCell id="Q9tQBNf_BRrUACm0dyuy-14" value="" style="shape=curlyBracket;whiteSpace=wrap;html=1;rounded=1;labelPosition=left;verticalLabelPosition=middle;align=right;verticalAlign=middle;" vertex="1" parent="1">
          <mxGeometry x="600" y="151" width="20" height="120" as="geometry" />
        </mxCell>
        <mxCell id="Q9tQBNf_BRrUACm0dyuy-15" value="&lt;font style=&quot;font-size: 14px;&quot;&gt;&lt;b&gt;KLGCN模型&lt;/b&gt;&lt;/font&gt;" style="text;html=1;align=center;verticalAlign=middle;whiteSpace=wrap;rounded=0;" vertex="1" parent="1">
          <mxGeometry x="520" y="196" width="80" height="30" as="geometry" />
        </mxCell>
        <mxCell id="Q9tQBNf_BRrUACm0dyuy-16" value="嵌入层" style="text;html=1;align=center;verticalAlign=middle;resizable=0;points=[];autosize=1;strokeColor=none;fillColor=none;" vertex="1" parent="1">
          <mxGeometry x="603" y="160" width="60" height="30" as="geometry" />
        </mxCell>
        <mxCell id="Q9tQBNf_BRrUACm0dyuy-17" value="聚合层" style="text;html=1;align=center;verticalAlign=middle;resizable=0;points=[];autosize=1;strokeColor=none;fillColor=none;" vertex="1" parent="1">
          <mxGeometry x="603" y="196" width="60" height="30" as="geometry" />
        </mxCell>
        <mxCell id="Q9tQBNf_BRrUACm0dyuy-18" value="预测层" style="text;html=1;align=center;verticalAlign=middle;resizable=0;points=[];autosize=1;strokeColor=none;fillColor=none;" vertex="1" parent="1">
          <mxGeometry x="603" y="229" width="60" height="30" as="geometry" />
        </mxCell>
        <mxCell id="Q9tQBNf_BRrUACm0dyuy-19" value="&lt;p class=&quot;MsoNormal&quot;&gt;&lt;span style=&quot;mso-spacerun:&#39;yes&#39;;font-family:宋体;font-size:12.0000pt;&lt;br/&gt;mso-font-kerning:1.0000pt;&quot;&gt;&lt;font face=&quot;Times New Roman&quot;&gt;&lt;b&gt;KLGCN Knowledge graph-aware Light Graph Convolutional Network for recommender systems&lt;/b&gt;&lt;/font&gt;&lt;/span&gt;&lt;/p&gt;" style="text;whiteSpace=wrap;html=1;" vertex="1" parent="1">
          <mxGeometry x="61.5" y="61" width="690" height="90" as="geometry" />
        </mxCell>
      </root>
    </mxGraphModel>
  </diagram>
</mxfile>
